<svg width="69" height="18" viewBox="0 0 69 18" fill="none" xmlns="http://www.w3.org/2000/svg">
<path d="M17.4602 8.79C17.4602 3.823 14.7862 0 7.97822 0H0.699219V17.574H7.97722C14.7852 17.574 17.4612 13.75 17.4612 8.789L17.4602 8.79ZM12.5082 8.79C12.5082 12.258 10.5782 13.547 7.90222 13.547H5.42622V4.027H7.90222C10.5782 4.027 12.5082 5.32 12.5082 8.789V8.79ZM18.5902 17.574H32.3522V13.574H23.3202V10.56H31.2502V6.762H23.3202V4.004H32.1252V0H18.5902V17.574ZM48.3632 6.105C48.3632 1.672 45.5632 0 41.2112 0H33.6842V17.574H38.4102V12.207H41.2102C45.5622 12.207 48.3632 10.535 48.3632 6.105ZM43.4652 6.105C43.4652 7.825 42.6652 8.535 40.7382 8.535H38.4102V3.672H40.7382C42.6642 3.672 43.4652 4.382 43.4652 6.105ZM48.8832 4.102H54.3592V17.574H59.0862V4.102H64.5662V0H48.8832V4.102ZM62.6022 15.113C62.6022 16.703 63.8752 17.993 65.4422 17.993C67.0162 17.993 68.3012 16.703 68.3012 15.113C68.3012 13.523 67.0162 12.223 65.4412 12.223C63.8752 12.223 62.6022 13.523 62.6022 15.113ZM63.1482 15.113C63.1482 13.801 64.1722 12.727 65.4412 12.727C66.7152 12.727 67.7502 13.801 67.7502 15.113C67.7502 16.426 66.7152 17.488 65.4412 17.488C64.1712 17.488 63.1482 16.426 63.1482 15.113ZM64.1092 16.539H65.0082V15.559H65.5202L66.0552 16.539H67.0272L66.3792 15.379C66.6762 15.254 66.9022 14.914 66.9022 14.531C66.9022 13.867 66.4772 13.547 65.7582 13.547H64.1092V16.539ZM65.9922 14.547C65.9922 14.785 65.8442 14.887 65.5592 14.887H65.0082V14.257H65.5582C65.8442 14.257 65.9922 14.332 65.9922 14.547Z" fill="black"/>
</svg>
