<svg xmlns="http://www.w3.org/2000/svg" xmlns:xlink="http://www.w3.org/1999/xlink" aria-hidden="true" role="img" class="iconify iconify--logos" width="35.93" height="32" preserveAspectRatio="xMidYMid meet" viewBox="0 0 256 228"><path fill="#00D8FF" d="M210.483 73.824a171.49 171.49 0 0 0-8.24-2.597c.465-1.9.893-3.777 1.273-5.621c6.238-30.281 2.16-54.676-11.769-62.708c-13.355-7.7-35.196.329-57.254 19.526a171.23 171.23 0 0 0-6.375 5.848a155.866 155.866 0 0 0-4.241-3.917C100.759 3.829 77.587-0.822 63.673 7.472C50.33 15.986 46.379 41.05 52.995 72.173a158.444 158.444 0 0 0 1.677 6.233c-2.939.658-5.735 1.39-8.345 2.209c-28.717 9.018-48.139 23.825-48.139 41.948c0 18.673 20.537 34.178 50.405 43.467c2.611.814 5.412 1.534 8.348 2.159a162.136 162.136 0 0 0-1.758 7.117c-6.094 30.394-1.77 54.782 11.657 63.24c13.727 8.684 37.156.275 60.018-19.112a159.258 159.258 0 0 0 5.131-4.73a172.777 172.777 0 0 0 6.13 5.501c22.14 18.477 44.236 26.087 57.284 17.768c13.379-8.537 17.673-34.593 10.772-66.165a156.46 156.46 0 0 0-1.203-4.686c2.042-.543 4.017-1.123 5.922-1.744c31.374-9.437 52.398-25.351 52.398-44.548c0-18.673-20.537-34.178-50.405-43.467ZM144.166 73.824c5.156-18.951 13.727-34.178 22.844-44.733c9.463-10.958 18.184-16.266 24.322-12.897c6.651 3.652 9.463 23.825 4.241 50.405a147.31 147.31 0 0 1-1.203 4.686c-8.348-2.044-17.204-3.719-26.467-4.998a163.7 163.7 0 0 0-17.204-18.951a147.31 147.31 0 0 1-6.533-8.512ZM95.718 131.567c4.241 7.117 8.76 14.019 13.658 20.537c4.998 6.518 10.372 12.897 16.266 18.951c-5.156.329-10.372.493-15.588.493c-5.216 0-10.372-.164-15.315-.493c4.998-6.054 10.051-12.433 15.016-18.951c4.964-6.518 9.847-13.42 14.67-20.537c-4.823-7.117-9.71-14.019-14.67-20.537c-4.964-6.518-10.051-12.897-15.016-18.951c4.943-.329 10.099-.493 15.315-.493c5.216 0 10.432.164 15.588.493c-5.894 6.054-11.268 12.433-16.266 18.951c-4.898 6.518-9.417 13.42-13.658 20.537Zm6.533-98.405c-6.138-3.369-14.859 1.939-24.322 12.897c-9.117 10.555-17.688 25.782-22.844 44.733a159.884 159.884 0 0 1-6.533 8.512a163.7 163.7 0 0 0-17.204 18.951c-9.263 1.279-18.119 2.954-26.467 4.998a147.31 147.31 0 0 1-1.203-4.686c-5.222-26.58-2.41-46.753 4.241-50.405c6.138-3.369 14.859 1.939 24.322 12.897ZM32.683 114.338c-22.14-6.518-36.327-16.266-36.327-28.521c0-12.254 14.187-22.002 36.327-28.521c2.245-.658 4.635-1.279 7.117-1.861a158.444 158.444 0 0 0 7.554 19.526c-2.774 6.847-5.222 13.914-7.34 21.198c-2.61-.576-5.051-1.203-7.331-1.821Zm8.512 73.02c2.118 7.284 4.566 14.351 7.34 21.198a158.444 158.444 0 0 0-7.554 19.526c-2.482-.582-4.872-1.203-7.117-1.861c-22.14-6.518-36.327-16.266-36.327-28.521c0-12.254 14.187-22.002 36.327-28.521c2.28-.618 4.721-1.245 7.331-1.821Zm64.542-55.49a159.258 159.258 0 0 1 11.268 18.623c-3.751-.165-7.554-.247-11.321-.247c-3.767 0-7.57.082-11.321.247a159.258 159.258 0 0 1 11.374-18.623Zm-22.572 32.193c2.317-4.019 4.741-7.991 7.284-11.898c3.751-.493 7.554-.747 11.321-.747c3.767 0 7.57.254 11.321.747c2.543 3.907 4.966 7.879 7.284 11.898c2.317 4.019 4.573 8.091 6.733 12.207c-2.16 4.116-4.416 8.188-6.733 12.207c-2.318 4.019-4.741 7.991-7.284 11.898c-3.751.493-7.554.747-11.321.747c-3.767 0-7.57-.254-11.321-.747c-2.543-3.907-4.967-7.879-7.284-11.898c-2.317-4.019-4.573-8.091-6.733-12.207c2.16-4.116 4.416-8.188 6.733-12.207Zm28.377 45.086a159.258 159.258 0 0 1-11.268 18.623a159.258 159.258 0 0 1-11.374-18.623c3.751.165 7.554.247 11.321.247c3.767 0 7.57-.082 11.321-.247ZM161.1 196.308c6.138 3.369 8.95 23.542 4.241 50.122a147.31 147.31 0 0 1-1.203 4.686c-8.348-2.044-17.204-3.719-26.467-4.998a163.7 163.7 0 0 0-17.204-18.951a147.31 147.31 0 0 1-6.533-8.512c9.463-10.958 18.184-16.266 24.322-12.897Zm38.602-58.452c-22.14 6.518-36.327 16.266-36.327 28.521c0 12.254 14.187 22.002 36.327 28.521c2.28.618 4.721 1.245 7.331 1.821c2.118-7.284 4.566-14.351 7.34-21.198a158.444 158.444 0 0 0 7.554-19.526c2.482.582 4.872 1.203 7.117 1.861Zm-7.331-73.02c-2.118-7.284-4.566-14.351-7.34-21.198a158.444 158.444 0 0 0 7.554-19.526c2.482.582 4.872 1.203 7.117 1.861c22.14 6.518 36.327 16.266 36.327 28.521c0 12.254-14.187 22.002-36.327 28.521c-2.28.618-4.721 1.245-7.331 1.821Z"/></svg>